<?xml version="1.0" encoding="iso-8859-1"?>
<!-- Generator: Adobe Illustrator 19.0.0, SVG Export Plug-In . SVG Version: 6.00 Build 0)  -->
<svg version="1.1" id="Layer_1" xmlns="http://www.w3.org/2000/svg" xmlns:xlink="http://www.w3.org/1999/xlink" x="0px" y="0px"
	 viewBox="0 0 512.001 512.001" style="enable-background:new 0 0 512.001 512.001;" xml:space="preserve">
<path style="fill:#B1404A;" d="M468.293,446.247H43.707c-6.896,0-12.488-5.592-12.488-12.488V96.118
	c0-22.015,17.91-39.925,39.925-39.925h369.713c22.013,0,39.924,17.91,39.924,39.925V433.76
	C480.78,440.655,475.188,446.247,468.293,446.247z M56.195,421.272h399.61V96.118c0-8.243-6.706-14.949-14.949-14.949H71.144
	c-8.243,0-14.949,6.706-14.949,14.949V421.272z"/>
<path style="fill:#EBAFAE;" d="M475.822,443.32H36.178c-13.083,0-23.691-10.606-23.691-23.691v-27.547
	c0-13.083,10.606-23.691,23.691-23.691h439.644c13.083,0,23.691,10.606,23.691,23.691v27.547
	C499.512,432.713,488.906,443.32,475.822,443.32z"/>
<g>
	<path style="fill:#B1404A;" d="M475.822,455.808H36.178C16.229,455.808,0,439.579,0,419.63v-27.548
		c0-19.949,16.229-36.178,36.178-36.178h439.644c19.949,0,36.178,16.229,36.178,36.178v27.548
		C512,439.579,495.771,455.808,475.822,455.808z M36.178,380.88c-6.176,0-11.203,5.025-11.203,11.203v27.548
		c0,6.176,5.025,11.203,11.203,11.203h439.644c6.177,0,11.203-5.025,11.203-11.203v-27.548c0-6.176-5.025-11.203-11.203-11.203
		H36.178z"/>
	<path style="fill:#B1404A;" d="M355.901,128.551H43.707c-6.896,0-12.488-5.592-12.488-12.488s5.592-12.488,12.488-12.488h312.194
		c6.896,0,12.488,5.592,12.488,12.488S362.797,128.551,355.901,128.551z"/>
	<path style="fill:#B1404A;" d="M93.659,328.356c-6.896,0-12.488-5.592-12.488-12.488V121.529c0-6.896,5.592-12.488,12.488-12.488
		c6.896,0,12.488,5.592,12.488,12.488v194.339C106.146,322.765,100.554,328.356,93.659,328.356z"/>
	<path style="fill:#B1404A;" d="M418.341,328.356c-6.896,0-12.488-5.592-12.488-12.488V115.286c0-6.896,5.592-12.488,12.488-12.488
		c6.896,0,12.488,5.592,12.488,12.488v200.583C430.829,322.765,425.237,328.356,418.341,328.356z"/>
</g>
<path style="fill:#EBAFAE;" d="M212.732,272.478v-72.449c0-5.734,6.185-9.338,11.174-6.51l63.883,36.225
	c5.056,2.867,5.056,10.151,0,13.019l-63.883,36.226C218.917,281.817,212.732,278.213,212.732,272.478z"/>
<path style="fill:#B1404A;" d="M220.226,292.46c-11.018,0-19.982-8.964-19.982-19.982V200.03c0-11.018,8.964-19.983,19.98-19.983
	c3.428,0,6.831,0.903,9.842,2.611l63.883,36.223c6.243,3.54,10.12,10.196,10.12,17.372c0,7.177-3.876,13.833-10.12,17.373
	l-63.883,36.225C227.053,291.56,223.653,292.46,220.226,292.46z M225.22,208.621v55.267l48.731-27.633L225.22,208.621z"/>
<g>
</g>
<g>
</g>
<g>
</g>
<g>
</g>
<g>
</g>
<g>
</g>
<g>
</g>
<g>
</g>
<g>
</g>
<g>
</g>
<g>
</g>
<g>
</g>
<g>
</g>
<g>
</g>
<g>
</g>
</svg>
